<?xml version="1.0" encoding="UTF-8" standalone="no"?>
<!DOCTYPE svg PUBLIC "-//W3C//DTD SVG 1.1//EN" "http://www.w3.org/Graphics/SVG/1.1/DTD/svg11.dtd">
<svg width="100%" height="100%" viewBox="0 0 2048 1536" version="1.1" xmlns="http://www.w3.org/2000/svg" xmlns:xlink="http://www.w3.org/1999/xlink" xml:space="preserve" xmlns:serif="http://www.serif.com/" style="fill-rule:evenodd;clip-rule:evenodd;stroke-linejoin:round;stroke-miterlimit:2;">
    <g transform="matrix(7.88028,0,0,7.88028,-7911.74,-4508.86)">
        <path d="M1048.61,633.099C1048.7,633.677 1049.33,634.11 1050.48,634.399C1051.64,634.688 1053.01,634.881 1054.6,634.978C1056.19,635.074 1057.85,635.122 1059.59,635.122L1063.92,635.122C1067.01,635.122 1069.51,635.146 1071.44,635.194C1073.36,635.242 1074.71,635.363 1075.48,635.556C1076.45,635.845 1077,635.965 1077.14,635.917C1077.29,635.869 1077.46,635.507 1077.65,634.833C1078.04,632.906 1078.52,630.305 1079.1,627.029L1082.35,608.605C1082.78,606.148 1083.05,604.727 1083.14,604.341C1083.34,603.571 1083.34,603.161 1083.14,603.113C1082.95,603.065 1082.47,603.33 1081.7,603.908C1081.41,604.101 1080.59,604.751 1079.24,605.859C1077.89,606.967 1076.18,608.388 1074.11,610.122C1072.04,611.856 1069.78,613.759 1067.32,615.83C1064.86,617.901 1062.45,619.973 1060.09,622.044C1057.73,624.115 1055.54,626.114 1053.52,628.041C1051.5,629.968 1049.86,631.654 1048.61,633.099ZM1011.32,668.359C1011.42,666.625 1012.07,665.06 1013.27,663.663C1014.48,662.266 1016.09,660.604 1018.11,658.677C1036.61,641.432 1051.54,627.824 1062.91,617.853C1074.28,607.882 1081.55,601.788 1084.73,599.573C1085.5,599.091 1086.66,598.657 1088.2,598.272C1089.74,597.887 1090.8,597.405 1091.38,596.827C1091.96,596.249 1092.27,596.177 1092.32,596.61C1092.37,597.044 1092.3,597.453 1092.1,597.839C1091.14,599.284 1090.37,600.946 1089.79,602.824C1089.21,604.703 1088.83,606.268 1088.63,607.521C1088.54,607.906 1088.27,609.183 1087.84,611.35C1087.4,613.518 1086.9,616.167 1086.32,619.298C1085.74,622.429 1085.14,625.801 1084.52,629.414C1083.89,633.027 1083.29,636.495 1082.71,639.819C1082.13,643.142 1081.67,646.129 1081.34,648.778C1081,651.428 1080.78,653.282 1080.69,654.342C1080.69,655.98 1080.85,657.256 1081.19,658.171C1081.53,659.087 1081.94,659.761 1082.42,660.194C1082.9,660.628 1083.38,660.893 1083.87,660.989C1084.35,661.086 1084.73,661.134 1085.02,661.134C1085.5,661.134 1086.08,661.061 1086.76,660.917C1087.43,660.772 1088.15,660.604 1088.92,660.411C1089.69,660.219 1090.1,660.267 1090.15,660.556C1090.2,660.845 1089.84,661.086 1089.07,661.278C1088.68,661.375 1087.98,661.567 1086.97,661.856C1085.96,662.145 1084.8,662.483 1083.5,662.868C1082.2,663.253 1080.9,663.614 1079.6,663.952C1078.3,664.289 1077.17,664.554 1076.21,664.746C1074.76,664.746 1073.8,663.783 1073.32,661.856C1073.41,661.278 1073.61,660.05 1073.89,658.171C1074.18,656.293 1074.5,654.294 1074.83,652.174C1075.17,650.055 1075.48,648.056 1075.77,646.177C1076.06,644.298 1076.21,643.07 1076.21,642.492C1076.21,641.432 1075.7,640.348 1074.69,639.241C1073.68,638.133 1072.21,637.338 1070.28,636.856C1069.61,636.663 1068.31,636.519 1066.38,636.423C1064.45,636.326 1062.14,636.278 1059.44,636.278C1056.65,636.278 1053.9,636.254 1051.21,636.206C1048.51,636.158 1046.49,636.037 1045.14,635.845C1037.81,642.492 1031.67,648.561 1026.71,654.053C1021.75,659.544 1018.02,664.12 1015.51,667.781C1014.74,669.034 1014.19,670.166 1013.85,671.177C1013.51,672.189 1013.25,673.513 1013.06,675.151C1012.86,675.729 1012.57,675.874 1012.19,675.585L1011.32,668.359Z" style="fill:url(#_Linear1);fill-rule:nonzero;"/>
        <path d="M1131.7,625.44C1131.7,626.307 1131.46,627.174 1130.98,628.041C1126.16,637.001 1121.82,644.925 1117.97,651.813C1114.12,658.701 1110.45,665.06 1106.99,670.888C1103.52,676.717 1100.1,682.353 1096.73,687.796C1093.35,693.239 1089.79,699.043 1086.03,705.209C1082.95,710.123 1079.6,714.723 1075.99,719.01C1072.38,723.297 1068.38,727.006 1064,730.137C1059.61,733.268 1054.84,735.725 1049.69,737.507C1044.53,739.289 1038.87,740.18 1032.71,740.18C1028.18,740.18 1024.45,739.578 1021.51,738.374C1018.57,737.17 1016.26,735.556 1014.57,733.533C1012.89,731.51 1011.71,729.198 1011.03,726.597C1010.36,723.995 1010.02,721.298 1010.02,718.504C1010.02,717.348 1010.12,716.12 1010.31,714.819C1010.5,713.518 1010.74,712.483 1011.03,711.712C1011.13,711.327 1011.32,711.134 1011.61,711.134C1011.9,711.134 1012.04,711.375 1012.04,711.857C1011.85,712.531 1011.66,713.326 1011.47,714.241C1011.27,715.156 1011.18,716.144 1011.18,717.203C1011.18,720.575 1011.9,723.49 1013.34,725.946C1014.79,728.403 1016.79,730.426 1019.34,732.016C1021.89,733.605 1024.9,734.81 1028.37,735.628C1031.84,736.447 1035.55,736.857 1039.5,736.857C1043.64,736.857 1047.81,736.182 1052,734.834C1056.19,733.485 1060.36,731.245 1064.5,728.114C1068.64,724.983 1072.71,720.913 1076.71,715.903C1080.71,710.893 1084.64,704.727 1088.49,697.406C1090.99,692.781 1093.64,687.868 1096.44,682.666C1099.23,677.463 1101.93,672.478 1104.53,667.709C1107.13,662.94 1109.47,658.653 1111.54,654.848C1113.61,651.042 1115.13,648.272 1116.09,646.538C1114.16,649.139 1112.29,651.596 1110.45,653.908C1108.62,656.22 1106.91,658.244 1105.33,659.978C1103.74,661.712 1102.22,663.085 1100.77,664.096C1099.33,665.108 1098.03,665.614 1096.87,665.614C1096,665.614 1095.28,665.325 1094.7,664.746C1094.12,664.168 1093.84,663.253 1093.84,662.001C1093.84,660.556 1094.44,658.508 1095.64,655.859C1096.85,653.21 1098.44,650.44 1100.41,647.55C1102.39,644.66 1104.63,641.914 1107.13,639.313C1109.64,636.712 1112.19,634.785 1114.79,633.532C1117.1,632.376 1119.41,631.798 1121.73,631.798C1122.4,631.798 1122.93,631.846 1123.32,631.943C1124.09,630.594 1124.88,629.245 1125.7,627.897C1126.52,626.548 1127.36,625.103 1128.23,623.561C1128.9,622.309 1129.53,621.683 1130.11,621.683C1130.49,621.683 1130.86,622.116 1131.19,622.983C1131.53,623.85 1131.7,624.669 1131.7,625.44ZM1122.45,633.966C1122.16,633.87 1121.78,633.821 1121.29,633.821L1120.28,633.821C1118.93,633.821 1117.66,633.942 1116.45,634.183C1115.25,634.424 1114.21,634.929 1113.35,635.7C1110.94,637.723 1108.87,639.987 1107.13,642.492C1105.4,644.997 1103.95,647.454 1102.8,649.862C1101.64,652.27 1100.8,654.462 1100.27,656.437C1099.74,658.412 1099.47,659.833 1099.47,660.7C1099.47,661.76 1099.76,662.29 1100.34,662.29C1100.92,662.29 1102.07,661.471 1103.81,659.833C1105.54,658.195 1107.49,656.028 1109.66,653.33C1111.83,650.633 1114.07,647.598 1116.38,644.226C1118.69,640.854 1120.71,637.434 1122.45,633.966Z" style="fill:url(#_Linear2);fill-rule:nonzero;"/>
        <path d="M1175.77,646.683C1174.13,648.995 1172.21,651.428 1169.99,653.981C1167.78,656.534 1165.46,658.87 1163.06,660.989C1160.65,663.109 1158.19,664.867 1155.69,666.264C1153.18,667.661 1150.82,668.359 1148.61,668.359C1146.97,668.359 1145.69,667.926 1144.78,667.059C1143.86,666.192 1143.4,664.843 1143.4,663.012C1143.4,662.145 1143.52,661.158 1143.76,660.05C1144.01,658.942 1144.41,657.714 1144.99,656.365C1144.41,657.039 1143.76,657.834 1143.04,658.749C1142.32,659.665 1141.5,660.532 1140.59,661.351C1139.67,662.169 1138.66,662.844 1137.55,663.374C1136.44,663.904 1135.21,664.168 1133.87,664.168C1132.81,664.168 1131.94,663.855 1131.26,663.229C1130.59,662.603 1130.25,661.615 1130.25,660.267C1130.25,659.496 1130.42,658.533 1130.76,657.377C1131.1,656.22 1131.72,654.655 1132.64,652.68C1133.55,650.705 1134.8,648.248 1136.39,645.31C1137.98,642.372 1140.03,638.735 1142.54,634.399C1143.02,633.436 1143.45,632.954 1143.84,632.954C1144.51,632.954 1145.21,633.364 1145.93,634.183C1146.65,635.002 1147.02,635.556 1147.02,635.845C1147.02,636.134 1146.73,636.712 1146.15,637.579C1144.61,639.891 1143.16,642.203 1141.81,644.515C1140.46,646.827 1139.28,648.995 1138.27,651.018C1137.26,653.041 1136.44,654.848 1135.82,656.437C1135.19,658.027 1134.88,659.255 1134.88,660.122C1134.88,661.567 1135.41,662.29 1136.47,662.29C1137.43,662.29 1138.75,661.543 1140.44,660.05C1142.13,658.557 1144.12,656.028 1146.44,652.463C1147.31,650.922 1148.2,649.308 1149.11,647.622C1150.03,645.936 1150.92,644.322 1151.78,642.781C1152.65,641.24 1153.47,639.819 1154.24,638.518C1155.01,637.217 1155.59,636.23 1155.98,635.556C1156.46,634.881 1156.84,634.544 1157.13,634.544C1157.52,634.544 1157.95,634.953 1158.43,635.772C1158.91,636.591 1159.15,637.579 1159.15,638.735C1159.15,639.505 1158.96,640.228 1158.58,640.902C1157.42,642.637 1156.19,644.347 1154.89,646.032C1153.59,647.718 1152.39,649.477 1151.28,651.307C1150.17,653.138 1149.23,655.064 1148.46,657.087C1147.69,659.111 1147.31,661.326 1147.31,663.735C1147.31,665.854 1148.32,666.914 1150.34,666.914C1151.69,666.914 1153.3,666.408 1155.18,665.397C1157.06,664.385 1159.11,662.964 1161.32,661.134C1163.54,659.303 1165.83,657.087 1168.19,654.486C1170.55,651.885 1172.79,649.043 1174.91,645.96C1175.48,645.768 1175.77,646.008 1175.77,646.683Z" style="fill:url(#_Linear3);fill-rule:nonzero;"/>
        <path d="M1218.4,644.226C1216.19,646.924 1213.76,649.645 1211.11,652.391C1208.46,655.137 1205.78,657.617 1203.09,659.833C1200.39,662.049 1197.71,663.831 1195.07,665.18C1192.42,666.529 1189.98,667.203 1187.77,667.203C1185.84,667.203 1184.49,666.721 1183.72,665.758C1182.95,664.795 1182.57,663.59 1182.57,662.145C1182.57,660.797 1182.97,658.99 1183.79,656.726C1184.61,654.462 1185.84,652.03 1187.48,649.428C1186.23,651.066 1184.78,652.8 1183.14,654.631C1181.51,656.461 1179.82,658.123 1178.09,659.616C1176.35,661.11 1174.62,662.362 1172.88,663.374C1171.15,664.385 1169.61,664.891 1168.26,664.891C1166.24,664.891 1165.22,663.879 1165.22,661.856C1165.22,659.64 1166.09,656.847 1167.83,653.475C1169.56,650.103 1171.89,646.851 1174.83,643.72C1177.77,640.589 1181.12,637.892 1184.88,635.628C1188.63,633.364 1192.54,632.232 1196.58,632.232C1197.06,631.268 1197.5,630.594 1197.88,630.209C1198.27,629.823 1198.65,629.534 1199.04,629.342L1203.09,628.186L1203.37,628.33C1202.89,628.812 1202.43,629.414 1202,630.136C1201.57,630.859 1201.11,631.606 1200.63,632.376C1201.11,632.376 1201.83,632.425 1202.8,632.521C1203.76,632.617 1204.48,632.714 1204.96,632.81C1205.45,633.003 1205.69,633.243 1205.69,633.532C1205.69,633.821 1205.54,633.966 1205.25,633.966C1204.67,633.773 1203.81,633.629 1202.65,633.532C1201.5,633.436 1200.63,633.388 1200.05,633.388C1195.62,641.191 1192.37,647.381 1190.3,651.957C1188.23,656.534 1187.19,659.93 1187.19,662.145C1187.19,663.012 1187.41,663.735 1187.84,664.313C1188.27,664.891 1189.16,665.18 1190.51,665.18C1192.05,665.18 1193.88,664.626 1196,663.518C1198.12,662.41 1200.39,660.869 1202.8,658.894C1205.2,656.919 1207.68,654.631 1210.24,652.03C1212.79,649.428 1215.22,646.683 1217.54,643.793C1217.73,643.504 1217.92,643.431 1218.11,643.576C1218.31,643.72 1218.4,643.937 1218.4,644.226ZM1195.86,633.243C1192.58,633.243 1189.45,634.399 1186.47,636.712C1183.48,639.024 1180.83,641.745 1178.52,644.876C1176.21,648.007 1174.35,651.114 1172.95,654.197C1171.56,657.28 1170.86,659.544 1170.86,660.989C1170.86,661.76 1171.15,662.145 1171.73,662.145C1172.31,662.145 1173.2,661.76 1174.4,660.989C1175.6,660.219 1176.98,659.183 1178.52,657.882C1180.06,656.582 1181.63,655.064 1183.21,653.33C1184.81,651.596 1186.27,649.717 1187.62,647.694C1189.16,645.382 1190.66,642.926 1192.1,640.324C1193.55,637.723 1194.85,635.411 1196,633.388L1195.86,633.243Z" style="fill:url(#_Linear4);fill-rule:nonzero;"/>
        <path d="M1092.1,679.478C1092.1,681.886 1091.36,684.511 1089.86,687.353C1088.37,690.195 1086.22,692.845 1083.43,695.301C1080.64,697.758 1077.24,699.781 1073.24,701.371C1069.25,702.96 1064.69,703.755 1059.59,703.755C1057.18,703.755 1055.06,703.418 1053.23,702.744C1052.94,702.551 1052.8,702.358 1052.8,702.166C1052.8,701.78 1052.99,701.588 1053.37,701.588C1053.86,701.78 1054.75,701.973 1056.05,702.166C1057.35,702.358 1058.58,702.455 1059.73,702.455C1063.39,702.455 1066.79,701.732 1069.92,700.287C1073.05,698.842 1075.75,696.963 1078.01,694.651C1080.28,692.339 1082.06,689.738 1083.36,686.848C1084.66,683.957 1085.31,681.067 1085.31,678.177C1085.31,674.131 1084.08,671.385 1081.62,669.94C1079.17,668.495 1076.21,667.772 1072.74,667.772C1070.33,667.772 1068.16,668.013 1066.24,668.495C1064.98,668.88 1064.02,669.699 1063.34,670.952C1061.51,674.034 1059.32,677.719 1056.77,682.007C1054.22,686.294 1051.64,690.725 1049.04,695.301C1046.44,699.878 1043.93,704.333 1041.52,708.669C1039.12,713.004 1037.09,716.761 1035.45,719.94C1034.39,722.06 1033.87,723.794 1033.87,725.143C1033.87,726.973 1034.63,728.25 1036.18,728.972C1037.72,729.695 1040.03,730.056 1043.11,730.056C1044.17,730.056 1044.7,730.201 1044.7,730.49C1044.7,730.779 1044.46,730.971 1043.98,731.068C1042.25,731.357 1040.3,731.597 1038.13,731.79C1035.96,731.983 1033.82,732.079 1031.7,732.079C1031.31,732.079 1030.71,732.031 1029.89,731.935C1029.07,731.838 1028.28,731.67 1027.51,731.429C1026.74,731.188 1026.06,730.851 1025.48,730.417C1024.9,729.984 1024.62,729.382 1024.62,728.611C1024.62,728.033 1024.86,727.166 1025.34,726.01C1026.69,723.023 1028.47,719.651 1030.68,715.894C1032.9,712.137 1035.02,708.572 1037.04,705.2C1039.45,701.154 1042.05,696.65 1044.85,691.689C1047.64,686.727 1050.1,682.272 1052.22,678.322C1052.41,678.033 1052.7,677.479 1053.08,676.66C1053.47,675.841 1053.86,674.998 1054.24,674.131C1054.63,673.264 1054.96,672.445 1055.25,671.674C1055.54,670.903 1055.68,670.374 1055.68,670.085C1055.68,669.699 1055.44,669.507 1054.96,669.507C1051.88,669.603 1048.87,669.844 1045.93,670.229C1042.99,670.614 1039.98,670.807 1036.9,670.807C1035.07,670.807 1034.15,670.277 1034.15,669.217C1034.15,669.025 1034.32,668.519 1034.66,667.7C1035,666.881 1035.31,666.472 1035.6,666.472C1035.79,666.472 1035.94,666.664 1036.03,667.05C1036.13,667.532 1036.71,667.869 1037.77,668.061C1038.63,668.254 1039.69,668.375 1040.95,668.423C1042.2,668.471 1043.4,668.495 1044.56,668.495C1047.45,668.495 1050.39,668.399 1053.37,668.206C1056.36,668.013 1059.18,667.772 1061.83,667.483C1064.48,667.194 1066.84,666.953 1068.91,666.761C1070.98,666.568 1072.59,666.472 1073.75,666.472C1075.87,666.472 1078.01,666.664 1080.18,667.05C1082.35,667.435 1084.32,668.134 1086.11,669.145C1087.89,670.157 1089.33,671.506 1090.44,673.191C1091.55,674.877 1092.1,676.973 1092.1,679.478Z" style="fill:url(#_Linear5);fill-rule:nonzero;"/>
        <path d="M1125.19,714.015C1123.56,716.328 1121.63,718.76 1119.41,721.313C1117.2,723.866 1114.89,726.202 1112.48,728.322C1110.07,730.441 1107.61,732.2 1105.11,733.597C1102.6,734.993 1100.24,735.692 1098.03,735.692C1096.39,735.692 1095.11,735.258 1094.2,734.391C1093.28,733.524 1092.82,732.175 1092.82,730.345C1092.82,729.478 1092.94,728.49 1093.19,727.383C1093.43,726.275 1093.84,725.046 1094.41,723.698C1093.84,724.372 1093.19,725.167 1092.46,726.082C1091.74,726.997 1090.92,727.864 1090.01,728.683C1089.09,729.502 1088.08,730.176 1086.97,730.706C1085.86,731.236 1084.64,731.501 1083.29,731.501C1082.23,731.501 1081.36,731.188 1080.69,730.562C1080.01,729.936 1079.67,728.948 1079.67,727.599C1079.67,726.829 1079.84,725.865 1080.18,724.709C1080.52,723.553 1081.14,721.988 1082.06,720.013C1082.97,718.038 1084.23,715.581 1085.82,712.643C1087.4,709.704 1089.45,706.067 1091.96,701.732C1092.44,700.769 1092.87,700.287 1093.26,700.287C1093.93,700.287 1094.63,700.696 1095.35,701.515C1096.08,702.334 1096.44,702.888 1096.44,703.177C1096.44,703.466 1096.15,704.044 1095.57,704.911C1094.03,707.224 1092.58,709.536 1091.24,711.848C1089.89,714.16 1088.71,716.328 1087.69,718.351C1086.68,720.374 1085.86,722.18 1085.24,723.77C1084.61,725.359 1084.3,726.588 1084.3,727.455C1084.3,728.9 1084.83,729.622 1085.89,729.622C1086.85,729.622 1088.18,728.876 1089.86,727.383C1091.55,725.889 1093.55,723.36 1095.86,719.796C1096.73,718.254 1097.62,716.641 1098.53,714.955C1099.45,713.269 1100.34,711.655 1101.21,710.114C1102.07,708.572 1102.89,707.151 1103.66,705.851C1104.43,704.55 1105.01,703.563 1105.4,702.888C1105.88,702.214 1106.26,701.877 1106.55,701.877C1106.94,701.877 1107.37,702.286 1107.85,703.105C1108.34,703.924 1108.58,704.911 1108.58,706.067C1108.58,706.838 1108.38,707.561 1108,708.235C1106.84,709.969 1105.61,711.679 1104.31,713.365C1103.01,715.051 1101.81,716.809 1100.7,718.64C1099.59,720.47 1098.65,722.397 1097.88,724.42C1097.11,726.443 1096.73,728.659 1096.73,731.068C1096.73,733.187 1097.74,734.247 1099.76,734.247C1101.11,734.247 1102.72,733.741 1104.6,732.729C1106.48,731.718 1108.53,730.297 1110.74,728.466C1112.96,726.636 1115.25,724.42 1117.61,721.819C1119.97,719.218 1122.21,716.376 1124.33,713.293C1124.91,713.1 1125.19,713.341 1125.19,714.015Z" style="fill:url(#_Linear6);fill-rule:nonzero;"/>
        <path d="M1150.19,701.877C1149.62,702.551 1149.02,703.37 1148.39,704.333C1147.76,705.297 1147.35,706.019 1147.16,706.501C1147.06,706.79 1146.87,706.934 1146.58,706.934C1146.49,706.934 1146.34,706.79 1146.15,706.501C1145.96,706.212 1145.69,705.899 1145.35,705.562C1145.02,705.224 1144.56,704.911 1143.98,704.622C1143.4,704.333 1142.58,704.189 1141.52,704.189C1140.27,704.189 1138.88,704.622 1137.33,705.489C1135.79,706.356 1134.44,707.32 1133.29,708.38C1131.46,709.921 1129.84,711.607 1128.45,713.437C1127.05,715.268 1125.72,717.171 1124.47,719.146C1123.22,721.121 1122.02,723.144 1120.86,725.215C1119.7,727.286 1118.45,729.382 1117.1,731.501C1117.01,731.79 1116.72,731.935 1116.24,731.935C1116.04,731.935 1115.63,731.646 1115.01,731.068C1114.38,730.49 1114.07,730.056 1114.07,729.767C1114.07,729.189 1114.4,728.322 1115.08,727.166C1116.62,724.468 1118.19,721.747 1119.78,719.001C1121.37,716.255 1122.86,713.678 1124.26,711.27C1125.65,708.861 1126.88,706.766 1127.94,704.984C1129,703.201 1129.72,701.877 1130.11,701.01C1130.59,700.143 1130.93,699.709 1131.12,699.709C1131.31,699.709 1131.79,699.95 1132.57,700.432C1133.34,700.913 1133.72,701.588 1133.72,702.455C1133.72,702.744 1133.55,703.225 1133.21,703.9C1132.88,704.574 1132.49,705.273 1132.06,705.995C1131.62,706.718 1131.22,707.416 1130.83,708.091C1130.44,708.765 1130.16,709.247 1129.96,709.536C1129.67,710.017 1129.63,710.258 1129.82,710.258C1130.01,710.258 1130.25,710.114 1130.54,709.825C1131.51,708.861 1132.68,707.802 1134.08,706.645C1135.48,705.489 1136.95,704.406 1138.49,703.394C1140.03,702.382 1141.55,701.539 1143.04,700.865C1144.54,700.191 1145.86,699.854 1147.02,699.854C1147.88,699.854 1148.63,700.07 1149.26,700.504C1149.88,700.937 1150.19,701.395 1150.19,701.877Z" style="fill:url(#_Linear7);fill-rule:nonzero;"/>
        <path d="M1182.71,714.16C1181.07,716.183 1179.12,718.278 1176.86,720.446C1174.59,722.614 1172.14,724.589 1169.49,726.371C1166.84,728.153 1164.09,729.598 1161.25,730.706C1158.41,731.814 1155.59,732.368 1152.8,732.368C1148.27,732.368 1146,730.345 1146,726.299C1146,723.601 1146.7,720.687 1148.1,717.556C1149.5,714.425 1151.3,711.535 1153.52,708.885C1155.73,706.236 1158.17,704.02 1160.82,702.238C1163.47,700.456 1165.99,699.564 1168.4,699.564C1169.75,699.564 1170.69,699.805 1171.22,700.287C1171.75,700.769 1172.02,701.395 1172.02,702.166C1172.02,703.322 1171.65,704.574 1170.93,705.923C1170.21,707.272 1169.13,708.548 1167.68,709.752C1166.24,710.957 1164.4,711.968 1162.19,712.787C1159.97,713.606 1157.32,714.015 1154.24,714.015C1153.76,714.883 1153.23,716.255 1152.65,718.134C1152.07,720.013 1151.78,721.915 1151.78,723.842C1151.78,727.792 1153.57,729.767 1157.13,729.767C1159.35,729.767 1161.63,729.237 1164,728.177C1166.36,727.118 1168.64,725.793 1170.86,724.203C1173.08,722.614 1175.12,720.88 1177,719.001C1178.88,717.122 1180.44,715.364 1181.7,713.726C1181.89,713.534 1182.11,713.486 1182.35,713.582C1182.59,713.678 1182.71,713.871 1182.71,714.16ZM1167.54,702.888C1167.54,701.636 1166.91,701.01 1165.66,701.01C1164.69,701.01 1163.71,701.371 1162.69,702.093C1161.68,702.816 1160.7,703.755 1159.73,704.911C1158.77,706.067 1157.85,707.32 1156.99,708.669C1156.12,710.017 1155.4,711.318 1154.82,712.57C1155.01,712.667 1155.35,712.739 1155.83,712.787C1156.31,712.835 1156.7,712.859 1156.99,712.859C1159.78,712.859 1162.24,711.872 1164.36,709.897C1166.48,707.922 1167.54,705.586 1167.54,702.888Z" style="fill:url(#_Linear8);fill-rule:nonzero;"/>
        <path d="M1250.19,737.426C1249.81,739.353 1248.92,741.207 1247.52,742.99C1246.12,744.772 1244.37,746.362 1242.25,747.758C1240.13,749.155 1237.67,750.287 1234.88,751.154C1232.08,752.021 1229.1,752.455 1225.92,752.455C1221.78,752.455 1217.63,751.877 1213.49,750.721C1209.35,749.565 1205.18,747.951 1200.99,745.88C1196.8,743.809 1192.54,741.352 1188.2,738.51C1183.87,735.668 1179.34,732.609 1174.62,729.333C1174.23,729.141 1173.94,729.02 1173.75,728.972C1173.56,728.924 1173.22,729.044 1172.74,729.333C1171.97,729.815 1171.27,730.249 1170.64,730.634C1170.02,731.019 1169.27,731.501 1168.4,732.079C1167.63,732.561 1167.1,732.513 1166.81,731.935C1166.52,731.357 1166.77,730.875 1167.54,730.49C1171.97,728.37 1176.16,726.082 1180.11,723.625C1184.06,721.169 1187.5,718.857 1190.44,716.689C1193.38,714.521 1195.71,712.691 1197.45,711.198C1199.18,709.704 1200.05,708.861 1200.05,708.669C1200.05,708.283 1199.86,708.091 1199.47,708.091C1199.09,708.187 1198.51,708.355 1197.74,708.596C1196.97,708.837 1196.17,709.054 1195.35,709.247C1194.54,709.439 1193.72,709.608 1192.9,709.752C1192.08,709.897 1191.43,709.969 1190.95,709.969C1189.69,709.969 1188.37,709.512 1186.97,708.596C1185.58,707.681 1184.88,706.067 1184.88,703.755C1185.07,702.985 1185.7,702.069 1186.76,701.01C1187.82,699.95 1189.12,698.938 1190.66,697.975C1191.04,697.975 1191.24,698.168 1191.24,698.553C1190.37,699.42 1189.93,700.769 1189.93,702.599C1189.93,704.237 1190.49,705.513 1191.6,706.429C1192.7,707.344 1194.13,707.802 1195.86,707.802C1198.08,707.802 1200.34,707.079 1202.65,705.634C1204.96,704.189 1207.23,702.407 1209.44,700.287C1209.92,699.805 1210.41,699.781 1210.89,700.215C1211.37,700.648 1211.37,701.154 1210.89,701.732C1209.25,702.888 1207.52,704.189 1205.69,705.634C1203.86,707.079 1202.41,708.283 1201.35,709.247C1199.04,711.27 1196,713.678 1192.25,716.472C1188.49,719.266 1184.3,722.204 1179.67,725.287C1179.29,725.48 1179.05,725.697 1178.95,725.937C1178.86,726.178 1179.1,726.491 1179.67,726.877C1184.49,730.056 1189.26,733.091 1193.98,735.981C1198.7,738.871 1203.21,741.424 1207.49,743.64C1211.78,745.856 1215.75,747.614 1219.41,748.915C1223.08,750.215 1226.21,750.865 1228.81,750.865C1233.14,750.865 1237.05,749.685 1240.51,747.325C1243.98,744.965 1246.92,741.569 1249.33,737.137C1249.71,736.848 1250,736.944 1250.19,737.426Z" style="fill:url(#_Linear9);fill-rule:nonzero;"/>
        <path d="M1257.85,711.559C1255.64,714.256 1253.21,716.978 1250.56,719.724C1247.91,722.469 1245.23,724.95 1242.54,727.166C1239.84,729.382 1237.16,731.164 1234.52,732.513C1231.87,733.861 1229.43,734.536 1227.22,734.536C1225.29,734.536 1223.94,734.054 1223.17,733.091C1222.4,732.127 1222.02,730.923 1222.02,729.478C1222.02,728.129 1222.42,726.323 1223.24,724.059C1224.06,721.795 1225.29,719.362 1226.93,716.761C1225.68,718.399 1224.23,720.133 1222.59,721.963C1220.96,723.794 1219.27,725.456 1217.54,726.949C1215.8,728.442 1214.07,729.695 1212.33,730.706C1210.6,731.718 1209.06,732.224 1207.71,732.224C1205.69,732.224 1204.67,731.212 1204.67,729.189C1204.67,726.973 1205.54,724.179 1207.28,720.807C1209.01,717.436 1211.35,714.184 1214.29,711.053C1217.22,707.922 1220.57,705.224 1224.33,702.96C1228.09,700.696 1231.99,699.564 1236.03,699.564C1236.52,698.601 1236.95,697.927 1237.33,697.541C1237.72,697.156 1238.11,696.867 1238.49,696.674L1242.54,695.518L1242.83,695.663C1242.34,696.144 1241.89,696.747 1241.45,697.469C1241.02,698.192 1240.56,698.938 1240.08,699.709C1240.56,699.709 1241.28,699.757 1242.25,699.854C1243.21,699.95 1243.93,700.046 1244.41,700.143C1244.9,700.335 1245.14,700.576 1245.14,700.865C1245.14,701.154 1244.99,701.299 1244.7,701.299C1244.13,701.106 1243.26,700.961 1242.1,700.865C1240.95,700.769 1240.08,700.721 1239.5,700.721C1235.07,708.524 1231.82,714.714 1229.75,719.29C1227.68,723.866 1226.64,727.262 1226.64,729.478C1226.64,730.345 1226.86,731.068 1227.29,731.646C1227.72,732.224 1228.62,732.513 1229.96,732.513C1231.51,732.513 1233.34,731.959 1235.45,730.851C1237.58,729.743 1239.84,728.201 1242.25,726.227C1244.66,724.252 1247.14,721.963 1249.69,719.362C1252.24,716.761 1254.67,714.015 1256.99,711.125C1257.18,710.836 1257.37,710.764 1257.57,710.908C1257.76,711.053 1257.85,711.27 1257.85,711.559ZM1235.31,700.576C1232.04,700.576 1228.9,701.732 1225.92,704.044C1222.93,706.356 1220.28,709.078 1217.97,712.209C1215.66,715.34 1213.8,718.447 1212.41,721.53C1211.01,724.613 1210.31,726.877 1210.31,728.322C1210.31,729.093 1210.6,729.478 1211.18,729.478C1211.76,729.478 1212.65,729.093 1213.85,728.322C1215.06,727.551 1216.43,726.516 1217.97,725.215C1219.51,723.914 1221.08,722.397 1222.67,720.663C1224.26,718.929 1225.73,717.05 1227.07,715.027C1228.62,712.715 1230.11,710.258 1231.55,707.657C1233,705.056 1234.3,702.744 1235.45,700.721L1235.31,700.576Z" style="fill:url(#_Linear10);fill-rule:nonzero;"/>
    </g>
    <defs>
        <linearGradient id="_Linear1" x1="0" y1="0" x2="1" y2="0" gradientUnits="userSpaceOnUse" gradientTransform="matrix(228.926,-129.525,129.525,228.926,1014.02,752.455)"><stop offset="0" style="stop-color:rgb(235,93,85);stop-opacity:1"/><stop offset="1" style="stop-color:rgb(0,89,255);stop-opacity:1"/></linearGradient>
        <linearGradient id="_Linear2" x1="0" y1="0" x2="1" y2="0" gradientUnits="userSpaceOnUse" gradientTransform="matrix(228.926,-129.525,129.525,228.926,1014.02,752.455)"><stop offset="0" style="stop-color:rgb(235,93,85);stop-opacity:1"/><stop offset="1" style="stop-color:rgb(0,89,255);stop-opacity:1"/></linearGradient>
        <linearGradient id="_Linear3" x1="0" y1="0" x2="1" y2="0" gradientUnits="userSpaceOnUse" gradientTransform="matrix(228.926,-129.525,129.525,228.926,1014.02,752.455)"><stop offset="0" style="stop-color:rgb(235,93,85);stop-opacity:1"/><stop offset="1" style="stop-color:rgb(0,89,255);stop-opacity:1"/></linearGradient>
        <linearGradient id="_Linear4" x1="0" y1="0" x2="1" y2="0" gradientUnits="userSpaceOnUse" gradientTransform="matrix(228.926,-129.525,129.525,228.926,1014.02,752.455)"><stop offset="0" style="stop-color:rgb(235,93,85);stop-opacity:1"/><stop offset="1" style="stop-color:rgb(0,89,255);stop-opacity:1"/></linearGradient>
        <linearGradient id="_Linear5" x1="0" y1="0" x2="1" y2="0" gradientUnits="userSpaceOnUse" gradientTransform="matrix(228.926,-129.525,129.525,228.926,1014.02,752.455)"><stop offset="0" style="stop-color:rgb(235,93,85);stop-opacity:1"/><stop offset="1" style="stop-color:rgb(0,89,255);stop-opacity:1"/></linearGradient>
        <linearGradient id="_Linear6" x1="0" y1="0" x2="1" y2="0" gradientUnits="userSpaceOnUse" gradientTransform="matrix(228.926,-129.525,129.525,228.926,1014.02,752.455)"><stop offset="0" style="stop-color:rgb(235,93,85);stop-opacity:1"/><stop offset="1" style="stop-color:rgb(0,89,255);stop-opacity:1"/></linearGradient>
        <linearGradient id="_Linear7" x1="0" y1="0" x2="1" y2="0" gradientUnits="userSpaceOnUse" gradientTransform="matrix(228.926,-129.525,129.525,228.926,1014.02,752.455)"><stop offset="0" style="stop-color:rgb(235,93,85);stop-opacity:1"/><stop offset="1" style="stop-color:rgb(0,89,255);stop-opacity:1"/></linearGradient>
        <linearGradient id="_Linear8" x1="0" y1="0" x2="1" y2="0" gradientUnits="userSpaceOnUse" gradientTransform="matrix(228.926,-129.525,129.525,228.926,1014.02,752.455)"><stop offset="0" style="stop-color:rgb(235,93,85);stop-opacity:1"/><stop offset="1" style="stop-color:rgb(0,89,255);stop-opacity:1"/></linearGradient>
        <linearGradient id="_Linear9" x1="0" y1="0" x2="1" y2="0" gradientUnits="userSpaceOnUse" gradientTransform="matrix(228.926,-129.525,129.525,228.926,1014.02,752.455)"><stop offset="0" style="stop-color:rgb(235,93,85);stop-opacity:1"/><stop offset="1" style="stop-color:rgb(0,89,255);stop-opacity:1"/></linearGradient>
        <linearGradient id="_Linear10" x1="0" y1="0" x2="1" y2="0" gradientUnits="userSpaceOnUse" gradientTransform="matrix(228.926,-129.525,129.525,228.926,1014.02,752.455)"><stop offset="0" style="stop-color:rgb(235,93,85);stop-opacity:1"/><stop offset="1" style="stop-color:rgb(0,89,255);stop-opacity:1"/></linearGradient>
    </defs>
</svg>
