<?xml version="1.0" encoding="UTF-8" standalone="no"?>
<!DOCTYPE svg PUBLIC "-//W3C//DTD SVG 1.1//EN" "http://www.w3.org/Graphics/SVG/1.1/DTD/svg11.dtd">
<svg width="100%" height="100%" viewBox="0 0 769 769" version="1.1" xmlns="http://www.w3.org/2000/svg" xmlns:xlink="http://www.w3.org/1999/xlink" xml:space="preserve" xmlns:serif="http://www.serif.com/" style="fill-rule:evenodd;clip-rule:evenodd;stroke-linejoin:round;stroke-miterlimit:2;">
    <g transform="matrix(1,0,0,1,-639.986,-383.986)">
        <g id="Avatar" transform="matrix(24.0009,0,0,24.0009,-2768.14,-1632.09)">
            <path d="M174,100C174,108.836 166.836,116 158,116C149.164,116 142,108.836 142,100C142,91.164 149.164,84 158,84C166.836,84 174,91.164 174,100ZM153.086,109.024C152.718,109.122 152.355,109.232 151.994,109.346C150.985,109.666 149.989,110.023 149,110.397C151.568,112.631 154.949,114 158.669,114C162.225,114 165.477,112.755 168,110.696C166.69,110.104 164.84,109.507 164.84,109.507C162.641,109.097 161.976,108.607 161.976,108.607C161.27,108.294 161.391,105.339 161.391,105.339C162.48,105.201 162.42,101.952 162.42,101.952C163.186,102.422 163.247,101.443 163.247,101.443C163.287,101.071 163.489,100.386 163.489,100.386C164.235,98.096 163.145,98.644 163.145,98.644C163.75,96.413 163.489,94.495 163.489,94.495C163.358,93.54 162.903,92.746 162.082,92.191C161.805,92.003 161.503,91.849 161.187,91.73C160.758,91.568 160.313,91.349 159.872,91.231C159.513,91.135 159.144,91.079 158.773,91.043C158.365,91.005 157.948,90.987 157.538,91.01C157.154,91.01 156.973,91.245 156.973,91.245C156.915,91.319 156.419,91.409 156.306,91.462C156.102,91.554 155.904,91.657 155.711,91.767C155.219,92.048 154.781,92.411 154.323,92.739C153.966,92.995 153.511,93.167 153.256,93.536C153.033,93.858 152.911,94.238 152.841,94.617C152.762,95.051 152.711,95.563 152.798,96.001C152.898,96.51 153.04,98.781 153.04,98.781C152.233,98.625 152.677,99.779 152.677,99.779C152.838,99.995 153.06,101.169 153.06,101.169C153.262,102.872 154.109,102.187 154.109,102.187C153.968,105.201 155.017,105.358 155.017,105.358C155.158,107.119 154.815,108.137 154.815,108.137C154.559,108.789 153.682,108.864 153.086,109.024Z" style="fill:url(#_Linear1);"/>
        </g>
    </g>
    <defs>
        <linearGradient id="_Linear1" x1="0" y1="0" x2="1" y2="0" gradientUnits="userSpaceOnUse" gradientTransform="matrix(1.77472e-15,-28.9834,-28.9834,-1.77472e-15,158,116)"><stop offset="0" style="stop-color:rgb(80,80,155);stop-opacity:1"/><stop offset="1" style="stop-color:rgb(208,104,96);stop-opacity:1"/></linearGradient>
    </defs>
</svg>
